PathFileType	4	(X/Y/Z)	/Users/itak/Documents/Research/Walk-IL/dataset/trc/00573_00009.trc
DataRate	CameraRate	NumFrames	NumMarkers	Units	OrigDataRate	OrigDataStartFrame	OrigNumFrames
100.000000	100.000000	4	53	mm	100.000000	71	569
Frame#	Time	RPSI			LPSI			L3			STRN			T10			C7			CLAV			RBAK			LBAK			LSHO			LUPA			LAEL			LAOL			LWTS			LWPS			LFRA			LIFD			LHPS			LHTS			RSHO			RUPA			RAEL			RAOL			RWTS			RWPS			RFRA			RIFD			RHTS			RHPS			RBHD			LFHD			RFHD			LBHD			LHIP			RHIP			RASI			LASI			LKNE			LTHI			LANK			LTIP			LTOE			LMT1			LMT5			LHEE			RKNE			RTHI			RANK			RTIP			RTOE			RMT1			RMT5			RHEE			
		X1	Y1	Z1	X2	Y2	Z2	X3	Y3	Z3	X4	Y4	Z4	X5	Y5	Z5	X6	Y6	Z6	X7	Y7	Z7	X8	Y8	Z8	X9	Y9	Z9	X10	Y10	Z10	X11	Y11	Z11	X12	Y12	Z12	X13	Y13	Z13	X14	Y14	Z14	X15	Y15	Z15	X16	Y16	Z16	X17	Y17	Z17	X18	Y18	Z18	X19	Y19	Z19	X20	Y20	Z20	X21	Y21	Z21	X22	Y22	Z22	X23	Y23	Z23	X24	Y24	Z24	X25	Y25	Z25	X26	Y26	Z26	X27	Y27	Z27	X28	Y28	Z28	X29	Y29	Z29	X30	Y30	Z30	X31	Y31	Z31	X32	Y32	Z32	X33	Y33	Z33	X34	Y34	Z34	X35	Y35	Z35	X36	Y36	Z36	X37	Y37	Z37	X38	Y38	Z38	X39	Y39	Z39	X40	Y40	Z40	X41	Y41	Z41	X42	Y42	Z42	X43	Y43	Z43	X44	Y44	Z44	X45	Y45	Z45	X46	Y46	Z46	X47	Y47	Z47	X48	Y48	Z48	X49	Y49	Z49	X50	Y50	Z50	X51	Y51	Z51	X52	Y52	Z52	X53	Y53	Z53	

72	0.71	-1250.28759765625	1023.30517578125	-142.7657470703125	-1234.684814453125	1025.691528320312	-275.5972595214844	-1233.026000976562	1105.432739257812	-212.8941802978516	-1000.237121582031	1298.293090820312	-203.50830078125	-1244.326904296875	1231.26318359375	-218.1007232666016	-1206.115600585938	1506.832397460938	-200.6615905761719	-1030.199951171875	1406.312133789062	-203.4992218017578	-1275.978149414062	1376.862670898438	-120.5726928710938	-1235.434204101562	1452.354736328125	-292.7467041015625	-1137.9638671875	1477.483764648438	-373.6683654785156	-1146.01611328125	1348.269409179688	-450.2059936523438	-1117.375854492188	1127.31640625	-466.469482421875	-1204.921508789062	1117.781494140625	-417.5847473144531	-1025.3349609375	886.407958984375	-408.9385681152344	-1065.955688476562	863.028564453125	-482.3829040527344	-1092.410766601562	1041.721923828125	-470.2826538085938	-1026.8115234375	716.95751953125	-405.4231872558594	-1058.736328125	803.0294799804688	-473.0646667480469	-1008.495300292969	808.5933837890625	-427.0393371582031	-1155.6689453125	1468.818115234375	-43.05786514282227	-1175.460327148438	1402.980590820312	23.57144355773926	-1169.880493164062	1112.534912109375	65.673828125	-1223.477416992188	1095.16650390625	36.94403076171875	-1033.409057617188	892.9496459960938	21.90779876708984	-1078.928466796875	871.5844116210938	88.06027984619141	-1158.793579101562	1056.718017578125	71.52269744873047	-1028.219360351562	719.6466674804688	20.26063346862793	-1004.785339355469	800.6500854492188	35.41032791137695	-1061.806762695312	797.1721801757812	83.88480377197266	-1154.664794921875	1684.420532226562	-136.5914459228516	-989.2205200195312	1725.321044921875	-256.2521667480469	-1021.19384765625	1722.23828125	-115.7950210571289	-1111.367309570312	1687.027954101562	-296.835693359375	-1101.689697265625	935.1710815429688	-393.4011840820312	-1145.564697265625	941.7868041992188	-9.923450469970703	-1049.213745117188	968.2733764648438	-59.5227165222168	-1027.77099609375	956.1513671875	-333.61669921875	-1112.2255859375	490.9151916503906	-326.7143249511719	-1097.716796875	654.7918701171875	-367.3255004882812	-1188.086059570312	25.4406852722168	-311.3455810546875	-1173.18896484375	248.4101715087891	-330.2669982910156	-977.424560546875	38.54558181762695	-251.0935363769531	-1050.3896484375	42.85699844360352	-216.7833251953125	-1065.377319335938	30.64459037780762	-325.200927734375	-1258.198486328125	29.88689613342285	-256.2965393066406	-1139.171508789062	497.4546203613281	-48.77044677734375	-1115.61474609375	785.8294067382812	-7.823586463928223	-1232.958618164062	38.66101837158203	-60.18872833251953	-1146.491821289062	356.4498596191406	-58.0554313659668	-1010.907165527344	38.10569381713867	-89.58719635009766	-1074.266357421875	34.57878875732422	-133.5796356201172	-1101.677612304688	39.21947479248047	-33.7578239440918	-1285.121826171875	26.90203666687012	-114.7206497192383	
73	0.72	-1250.287109375	1023.328491210938	-142.6792755126953	-1234.744018554688	1025.7021484375	-275.4952697753906	-1233.0390625	1105.405151367188	-212.8283843994141	-1000.204345703125	1298.301879882812	-203.4958038330078	-1244.361328125	1231.248657226562	-218.0100402832031	-1206.163452148438	1506.826538085938	-200.5679931640625	-1030.223999023438	1406.32470703125	-203.4857330322266	-1275.983520507812	1376.838256835938	-120.4572067260742	-1235.489379882812	1452.335205078125	-292.6720275878906	-1138.111328125	1477.494750976562	-373.6500854492188	-1146.086303710938	1348.1376953125	-450.0109252929688	-1117.170654296875	1127.253540039062	-465.8759460449219	-1204.597290039062	1117.4912109375	-416.7284240722656	-1022.751647949219	887.6348876953125	-407.3934326171875	-1063.753784179688	863.2557983398438	-480.4330444335938	-1091.666015625	1041.812377929688	-469.3716125488281	-1023.663391113281	718.3480224609375	-403.5440368652344	-1055.757934570312	803.423095703125	-470.7639465332031	-1005.200317382812	809.9732055664062	-425.1048278808594	-1155.6201171875	1468.812377929688	-43.01013946533203	-1175.337646484375	1402.944580078125	23.62598609924316	-1169.416625976562	1112.492919921875	65.57115173339844	-1222.981811523438	1095.02392578125	36.92931747436523	-1032.525756835938	893.1461181640625	21.51077461242676	-1077.988525390625	871.6953125	87.69082641601562	-1158.249145507812	1056.664428710938	71.44538879394531	-1026.987670898438	719.9033203125	19.62876892089844	-1003.755859375	800.9609985351562	34.85564804077148	-1060.68359375	797.2681884765625	83.38860321044922	-1154.6533203125	1684.437377929688	-136.5287475585938	-989.2666015625	1725.318237304688	-256.2401428222656	-1021.184265136719	1722.209838867188	-115.7981948852539	-1111.45263671875	1687.072631835938	-296.7506103515625	-1100.836791992188	934.5532836914062	-392.9469604492188	-1145.52734375	941.7930297851562	-9.8712158203125	-1049.1884765625	968.2819213867188	-59.50710678100586	-1027.720825195312	956.333740234375	-333.6772155761719	-1112.264038085938	490.924560546875	-326.7107238769531	-1097.8603515625	654.8316040039062	-367.3505249023438	-1188.086791992188	25.43801689147949	-311.3457946777344	-1173.212280273438	248.4098663330078	-330.2593994140625	-977.4212036132812	38.54765319824219	-251.0944061279297	-1050.388916015625	42.85853576660156	-216.7900848388672	-1065.381225585938	30.6494312286377	-325.2047729492188	-1258.200927734375	29.88494110107422	-256.2984008789062	-1139.200561523438	497.4511413574219	-48.76194381713867	-1115.599853515625	785.81787109375	-7.791446685791016	-1232.959228515625	38.66193389892578	-60.18832397460938	-1146.536499023438	356.4586791992188	-58.03307342529297	-1010.907958984375	38.11212539672852	-89.58683013916016	-1074.265869140625	34.57832717895508	-133.5790863037109	-1101.679931640625	39.21881484985352	-33.75905227661133	-1285.123046875	26.90298271179199	-114.7203826904297	
74	0.73	-1250.293090820312	1023.348266601562	-142.6145935058594	-1234.791381835938	1025.710571289062	-275.4137878417969	-1233.054931640625	1105.381591796875	-212.7805938720703	-1000.183532714844	1298.309448242188	-203.4843902587891	-1244.4033203125	1231.235595703125	-217.9335479736328	-1206.21435546875	1506.817626953125	-200.4813232421875	-1030.2490234375	1406.337524414062	-203.4781036376953	-1275.991577148438	1376.816162109375	-120.3583679199219	-1235.543823242188	1452.313598632812	-292.6097412109375	-1138.263427734375	1477.500610351562	-373.6330261230469	-1146.158447265625	1348.01318359375	-449.8270263671875	-1116.939575195312	1127.187866210938	-465.2989807128906	-1204.281372070312	1117.209106445312	-415.9425354003906	-1020.261840820312	888.8797607421875	-405.8369445800781	-1061.527465820312	863.5113525390625	-478.4891052246094	-1090.8876953125	1041.902709960938	-468.4629821777344	-1020.558959960938	719.7447509765625	-401.6471252441406	-1052.735717773438	803.85205078125	-468.4742431640625	-1001.948852539062	811.3592529296875	-423.1525573730469	-1155.583862304688	1468.806884765625	-42.97197341918945	-1175.233642578125	1402.908447265625	23.6743221282959	-1168.97607421875	1112.448974609375	65.45884704589844	-1222.513916015625	1094.8876953125	36.8995361328125	-1031.640747070312	893.3511352539062	21.08449745178223	-1077.060546875	871.8078002929688	87.30987548828125	-1157.721069335938	1056.607543945312	71.35041046142578	-1025.771484375	720.1785888671875	19.0112476348877	-1002.752197265625	801.30078125	34.32726287841797	-1059.572021484375	797.3740234375	82.90222930908203	-1154.637451171875	1684.456909179688	-136.4826812744141	-989.3013305664062	1725.30712890625	-256.2359924316406	-1021.165893554688	1722.177124023438	-115.8131103515625	-1111.525146484375	1687.10888671875	-296.677490234375	-1099.685180664062	933.71240234375	-392.3577575683594	-1145.510009765625	941.7988891601562	-9.824441909790039	-1049.199462890625	968.2872314453125	-59.4664306640625	-1027.632690429688	956.587158203125	-333.7543640136719	-1112.291259765625	490.9281921386719	-326.7003173828125	-1097.964965820312	654.8804321289062	-367.3519592285156	-1188.088012695312	25.43482398986816	-311.347412109375	-1173.227294921875	248.4089965820312	-330.2531433105469	-977.4190063476562	38.54928207397461	-251.0944213867188	-1050.388305664062	42.85879898071289	-216.7931213378906	-1065.379150390625	30.65310478210449	-325.1993408203125	-1258.203735351562	29.88307762145996	-256.3024597167969	-1139.245239257812	497.4483032226562	-48.75308227539062	-1115.6044921875	785.80908203125	-7.765576362609863	-1232.960815429688	38.66233444213867	-60.188720703125	-1146.590576171875	356.4671630859375	-58.01389312744141	-1010.908447265625	38.11959457397461	-89.586669921875	-1074.266235351562	34.57864379882812	-133.5792846679688	-1101.681884765625	39.21887969970703	-33.75824356079102	-1285.124633789062	26.90224456787109	-114.7197341918945	
75	0.74	-1250.304443359375	1023.363159179688	-142.5723724365234	-1234.827392578125	1025.717407226562	-275.3513488769531	-1233.072387695312	1105.36279296875	-212.7489013671875	-1000.171325683594	1298.316284179688	-203.4749755859375	-1244.450317382812	1231.223999023438	-217.8717041015625	-1206.271362304688	1506.804931640625	-200.3990631103516	-1030.272827148438	1406.350952148438	-203.4760131835938	-1276.001220703125	1376.796264648438	-120.2751693725586	-1235.60302734375	1452.288452148438	-292.5567321777344	-1138.417846679688	1477.5009765625	-373.6161499023438	-1146.228881835938	1347.8974609375	-449.6570434570312	-1116.674560546875	1127.119873046875	-464.7418212890625	-1203.969970703125	1116.932983398438	-415.2450256347656	-1017.848754882812	890.1448364257812	-404.2736511230469	-1059.274658203125	863.8020629882812	-476.560302734375	-1090.069702148438	1041.994018554688	-467.5582580566406	-1017.521789550781	721.12548828125	-399.7360534667969	-1049.680419921875	804.3140869140625	-466.2055053710938	-998.7647094726562	812.7293090820312	-421.1860961914062	-1155.558959960938	1468.801391601562	-42.94157409667969	-1175.1474609375	1402.872436523438	23.71681594848633	-1168.55419921875	1112.399780273438	65.33837127685547	-1222.076049804688	1094.75830078125	36.85966110229492	-1030.7666015625	893.5628662109375	20.63088989257812	-1076.146728515625	871.9165649414062	86.91319274902344	-1157.2138671875	1056.547729492188	71.24254608154297	-1024.581176757812	720.4749145507812	18.41389465332031	-1001.759155273438	801.6568603515625	33.8105583190918	-1058.473999023438	797.4955444335938	82.42057800292969	-1154.614379882812	1684.48046875	-136.4496917724609	-989.3233032226562	1725.28759765625	-256.2409362792969	-1021.137512207031	1722.143310546875	-115.8363723754883	-1111.583618164062	1687.13671875	-296.6185913085938	-1098.301635742188	932.7001953125	-391.6626892089844	-1145.513061523438	941.8035278320312	-9.782035827636719	-1049.240966796875	968.2891845703125	-59.40514755249023	-1027.511596679688	956.900146484375	-333.8441467285156	-1112.31005859375	490.9253845214844	-326.6815795898438	-1098.023315429688	654.9341430664062	-367.3209533691406	-1188.090087890625	25.43136215209961	-311.3503723144531	-1173.23388671875	248.4093627929688	-330.2489929199219	-977.41796875	38.55056381225586	-251.0932769775391	-1050.388061523438	42.85784149169922	-216.7920379638672	-1065.370849609375	30.65530204772949	-325.1856384277344	-1258.206420898438	29.88109016418457	-256.3080139160156	-1139.306396484375	497.4459533691406	-48.74257278442383	-1115.629516601562	785.802734375	-7.74317455291748	-1232.96337890625	38.66232299804688	-60.1898307800293	-1146.650756835938	356.4718933105469	-58.00056457519531	-1010.908874511719	38.12697219848633	-89.58657836914062	-1074.267578125	34.57975006103516	-133.5803070068359	-1101.683471679688	39.21974563598633	-33.75576019287109	-1285.126342773438	26.89902877807617	-114.7186508178711	
